<svg width="332" height="58" viewBox="0 0 332 58" fill="none" xmlns="http://www.w3.org/2000/svg">
<path d="M148.164 51.5001L160.708 9.13205C160.836 8.68405 161.348 8.30005 161.86 8.30005H163.268C164.164 8.30005 164.676 9.00405 164.42 9.90005L151.94 52.2681C151.812 52.7161 151.236 53.1001 150.788 53.1001H149.316C148.484 53.1001 147.908 52.3961 148.164 51.5001Z" fill="#403E3E"/>
<path d="M122.439 50.3401C122.079 50.0201 121.799 49.7401 122.199 49.0601C122.559 48.5401 122.879 47.9401 123.239 47.4201C123.599 46.9001 124.159 46.7401 124.599 47.1001C124.839 47.3001 127.919 49.8601 130.999 49.8601C133.759 49.8601 135.519 48.1801 135.519 46.1401C135.519 43.7401 133.439 42.2201 129.479 40.5801C125.399 38.8601 122.199 36.7401 122.199 32.1001C122.199 28.9801 124.599 24.7001 130.959 24.7001C134.959 24.7001 137.959 26.7801 138.359 27.0601C138.679 27.2601 138.999 27.8201 138.599 28.4201C138.279 28.9001 137.919 29.4601 137.599 29.9401C137.279 30.4601 136.759 30.7001 136.199 30.3401C135.919 30.1801 133.119 28.3401 130.799 28.3401C127.439 28.3401 126.279 30.4601 126.279 31.9401C126.279 34.2201 128.039 35.6201 131.359 36.9801C135.999 38.8601 139.959 41.0601 139.959 45.9401C139.959 50.1001 136.239 53.5001 131.039 53.5001C126.159 53.5001 123.079 50.9401 122.439 50.3401Z" fill="#403E3E"/>
<path d="M96.955 50.3401C96.595 50.0201 96.315 49.7401 96.715 49.0601C97.075 48.5401 97.395 47.9401 97.755 47.4201C98.115 46.9001 98.675 46.7401 99.115 47.1001C99.355 47.3001 102.435 49.8601 105.515 49.8601C108.275 49.8601 110.035 48.1801 110.035 46.1401C110.035 43.7401 107.955 42.2201 103.995 40.5801C99.915 38.8601 96.715 36.7401 96.715 32.1001C96.715 28.9801 99.115 24.7001 105.475 24.7001C109.475 24.7001 112.475 26.7801 112.875 27.0601C113.195 27.2601 113.515 27.8201 113.115 28.4201C112.795 28.9001 112.435 29.4601 112.115 29.9401C111.795 30.4601 111.275 30.7001 110.715 30.3401C110.435 30.1801 107.635 28.3401 105.315 28.3401C101.955 28.3401 100.795 30.4601 100.795 31.9401C100.795 34.2201 102.555 35.6201 105.875 36.9801C110.515 38.8601 114.475 41.0601 114.475 45.9401C114.475 50.1001 110.755 53.5001 105.555 53.5001C100.675 53.5001 97.595 50.9401 96.955 50.3401Z" fill="#403E3E"/>
<path d="M60.8531 39.1401C60.8531 31.1401 67.2132 24.7001 75.2132 24.7001C83.2132 24.7001 89.6131 31.1401 89.6131 39.1401C89.6131 47.1401 83.2132 53.5001 75.2132 53.5001C67.2132 53.5001 60.8531 47.1401 60.8531 39.1401ZM64.8532 39.1401C64.8532 44.8601 69.5332 49.5001 75.2132 49.5001C80.9332 49.5001 85.6131 44.8601 85.6131 39.1401C85.6131 33.4601 80.9332 28.7001 75.2132 28.7001C69.5332 28.7001 64.8532 33.4601 64.8532 39.1401Z" fill="#403E3E"/>
<path d="M33.4916 52.3401V25.8601C33.4916 25.4601 33.8116 25.1001 34.2516 25.1001H45.1316C49.9316 25.1001 53.8516 28.9001 53.8516 33.6601C53.8516 37.3401 51.4116 40.3801 47.9316 41.7801L53.4116 51.9401C53.6916 52.4601 53.4116 53.1001 52.7316 53.1001H49.6116C49.2916 53.1001 49.0516 52.9001 48.9716 52.7401L43.6516 42.1401H37.6116V52.3401C37.6116 52.7401 37.2516 53.1001 36.8516 53.1001H34.2516C33.8116 53.1001 33.4916 52.7401 33.4916 52.3401ZM37.6916 38.7001H44.8116C47.4116 38.7001 49.6916 36.5001 49.6916 33.7401C49.6916 31.1401 47.4116 28.9801 44.8116 28.9801H37.6916V38.7001Z" fill="#403E3E"/>
<path d="M0 39.1401C0 31.1401 6.44 24.7001 14.44 24.7001C18.48 24.7001 21.4 26.0601 24.12 28.4201C24.48 28.7401 24.48 29.2201 24.16 29.5401L22.4 31.3401C22.12 31.7001 21.76 31.7001 21.4 31.3401C19.52 29.7001 16.96 28.6601 14.48 28.6601C8.76 28.6601 4.44 33.4601 4.44 39.0601C4.44 44.6601 8.8 49.4201 14.52 49.4201C17.44 49.4201 19.48 48.2601 21.4 46.7801C21.76 46.5001 22.12 46.5401 22.36 46.7401L24.2 48.5401C24.52 48.8201 24.44 49.3401 24.16 49.6201C21.44 52.2601 18 53.5001 14.44 53.5001C6.44 53.5001 0 47.1401 0 39.1401Z" fill="#403E3E"/>
<path d="M310.652 53.5L310.449 42.4568H311.992C312.358 47.9378 315.524 51.9978 321.29 51.9978C325.268 51.9978 327.907 50.0896 327.907 46.9228C327.907 43.756 325.147 42.538 320.072 40.711C315.2 39.0058 310.855 37.5442 310.855 32.388C310.855 29.8708 311.952 28.0032 313.454 26.7852C315.321 25.1206 318.042 24.3492 320.762 24.3492C325.228 24.3492 327.704 26.4604 328.638 26.4604C329.166 26.4604 329.369 25.892 329.41 24.3492H330.668L330.831 34.2556H329.328C328.963 29.7896 326.689 25.8514 320.884 25.8514C316.986 25.8514 314.753 27.719 314.753 30.1956C314.753 33.1188 317.798 34.0526 322.183 35.5954C327.704 37.5442 331.927 39.2494 331.927 44.568C331.927 47.207 330.831 49.3994 329.004 50.9828C327.177 52.5256 324.416 53.5 321.168 53.5C316.215 53.5 313.941 51.1858 312.845 51.1858C312.073 51.1858 311.992 51.9978 311.911 53.5H310.652Z" fill="#403E3E"/>
<path d="M281.207 53.1346V51.7948C285.105 51.673 285.105 50.7798 285.105 47.9378V29.952C285.105 27.11 285.105 26.2168 281.207 26.095V24.7146H295.092V26.095C290.383 26.2168 290.383 27.11 290.383 29.952V48.0596C290.383 50.7392 290.383 51.5512 293.225 51.5512H295.701C301.223 51.5512 302.847 49.1152 303.212 41.2388H304.796L304.633 53.1346H281.207Z" fill="#403E3E"/>
<path d="M262.359 53.1346V51.7948C266.175 51.673 266.175 50.7392 266.175 47.9378V29.9114C266.175 27.11 266.175 26.1762 262.359 26.0544V24.7146H275.27V26.0544C271.453 26.1762 271.453 27.11 271.453 29.9114V47.9378C271.453 50.7392 271.453 51.673 275.27 51.7948V53.1346H262.359Z" fill="#403E3E"/>
<path d="M252.609 47.207C253.867 50.7798 254.314 51.5512 257.927 51.7948V53.1346H243.839V51.7948C248.589 51.5918 248.143 50.3332 247.047 47.2476L246.194 44.8522H236.206L235.719 46.2326C234.176 50.4144 233.77 51.5512 238.521 51.7948V53.1346H228.168V51.7948C231.74 51.5512 232.309 50.5768 233.892 46.2326L240.145 29.1806L241.728 24.5522H244.286L252.609 47.207ZM236.815 43.1876H245.626L242.743 34.9052L241.444 30.8452H241.281L236.815 43.1876Z" fill="#403E3E"/>
<path d="M224.342 45.8266H225.519V49.034C225.519 50.4144 225.235 51.5106 224.382 52.282C223.651 53.0128 222.352 53.5 220.485 53.5C218.739 53.5 217.399 53.0128 216.587 51.9978C215.897 51.1046 215.694 49.9272 215.694 48.628V45.6642C215.694 41.4012 213.38 40.305 209.847 40.305H207.208V47.9378C207.208 50.7392 207.208 51.673 211.106 51.7948V53.1346H198.033V51.7948C201.93 51.673 201.93 50.7392 201.93 47.9378V29.9114C201.93 27.0694 201.93 26.1762 198.033 26.0544V24.7146H211.147C217.399 24.7146 222.271 26.501 222.271 32.185C222.271 36.8946 218.536 39.2494 213.989 39.9396V40.0208C218.333 40.6704 221.418 42.741 221.418 46.3138V48.831C221.418 49.6024 221.5 50.2926 221.703 50.6986C221.906 51.1046 222.312 51.3888 222.88 51.3888C223.448 51.3888 223.895 51.1046 224.098 50.6174C224.301 50.2114 224.342 49.5618 224.342 48.7904V45.8266ZM207.208 38.6404H210.984C215.044 38.6404 216.628 36.651 216.628 32.185C216.628 27.719 215.044 26.2168 211.147 26.2168H209.604C207.452 26.2168 207.208 26.9476 207.208 28.8558V38.6404Z" fill="#403E3E"/>
<path d="M168.648 24.7146H193.292L193.455 35.3112H191.993C191.668 28.5716 189.923 26.298 186.512 26.298H183.589V47.9378C183.589 50.7798 183.589 51.673 187.811 51.7948V53.1346H174.089V51.7948C178.311 51.673 178.311 50.7798 178.311 47.9378V26.298H175.428C172.018 26.298 170.313 28.5716 169.947 35.3112H168.486L168.648 24.7146Z" fill="#403E3E"/>
</svg>
